<svg width="218" height="275" viewBox="0 0 218 275" fill="none" xmlns="http://www.w3.org/2000/svg">
<path d="M27.1689 243.374V246.792H18.5898C19.1025 249.355 22.3154 251.953 28.4678 252.637L26.8613 256.055C21.0337 255.405 17.1372 252.979 15.5137 249.766C13.873 252.961 10.0107 255.405 4.2002 256.055L2.62793 252.637C8.78027 251.953 11.959 249.321 12.4717 246.792H3.96094V243.374H27.1689ZM29.8008 257.524V261.011H18.0771V266.377H13.7705V261.011H1.3291V257.524H29.8008ZM26.6562 269.111V272.598H4.67871V263.608H9.01953V269.111H26.6562ZM56.7822 242.041V273.213H52.373V242.041H56.7822ZM36.6504 244.502V252.09H43.3496V244.502H47.6562V265.933H32.2754V244.502H36.6504ZM36.6504 262.412H43.3496V255.474H36.6504V262.412ZM88.4805 256.157V259.678H76.4492V261.968C81.8667 262.378 85.0625 264.326 85.0967 267.539C85.0625 271.128 80.9951 273.145 74.2617 273.145C67.4258 273.145 63.3584 271.128 63.3584 267.539C63.3584 264.309 66.5884 262.361 72.1084 261.968V259.678H60.1113V256.157H88.4805ZM74.2617 265.181C69.9551 265.215 67.7676 265.967 67.8018 267.539C67.7676 269.043 69.9551 269.863 74.2617 269.863C78.4658 269.863 80.6875 269.043 80.7217 267.539C80.6875 265.967 78.4658 265.215 74.2617 265.181ZM85.917 243.374V246.792H77.4746C78.2095 248.979 81.3711 251.082 87.2842 251.577L85.7461 254.995C79.8843 254.431 75.9194 252.209 74.2617 249.185C72.6211 252.209 68.7246 254.431 62.8115 254.995L61.376 251.577C67.1353 251.082 70.314 248.962 71.1172 246.792H62.709V243.374H85.917ZM115.53 242.041V273.213H111.121V242.041H115.53ZM98.6455 244.229C103.328 244.229 106.814 248.535 106.814 255.303C106.814 262.139 103.328 266.411 98.6455 266.411C93.8604 266.411 90.374 262.139 90.4082 255.303C90.374 248.535 93.8604 244.229 98.6455 244.229ZM98.6455 248.159C96.2188 248.159 94.6123 250.688 94.6123 255.303C94.6123 259.951 96.2188 262.446 98.6455 262.446C101.004 262.446 102.61 259.951 102.61 255.303C102.61 250.688 101.004 248.159 98.6455 248.159ZM145.827 242.041V273.145H141.657V242.041H145.827ZM139.333 242.485V271.709H135.231V257.012H132.736C132.326 263.13 129.729 266.821 125.9 266.821C121.799 266.821 119.133 262.515 119.133 255.508C119.133 248.535 121.799 244.263 125.9 244.263C129.643 244.263 132.207 247.749 132.702 253.56H135.231V242.485H139.333ZM125.9 248.364C124.157 248.364 123.132 250.757 123.166 255.508C123.132 260.293 124.157 262.651 125.9 262.617C127.678 262.651 128.737 260.293 128.737 255.508C128.737 250.757 127.678 248.364 125.9 248.364ZM176.705 265.933V269.521H148.233V265.933H154.591V258.311C152.181 256.875 150.729 254.67 150.729 251.919C150.729 246.895 155.65 243.545 162.418 243.545C169.151 243.545 174.107 246.895 174.142 251.919C174.125 254.602 172.706 256.79 170.382 258.242V265.933H176.705ZM162.418 246.997C157.975 246.997 155.035 248.774 155.035 251.919C155.035 254.961 157.975 256.841 162.418 256.841C166.827 256.841 169.801 254.961 169.835 251.919C169.801 248.774 166.827 246.997 162.418 246.997ZM158.897 265.933H165.973V259.883C164.862 260.105 163.666 260.225 162.418 260.225C161.17 260.225 159.991 260.122 158.897 259.883V265.933Z" fill="black"/>
<path d="M91.9699 49.2188H86.7305V81.3821H91.9699V49.2188Z" fill="#757575"/>
<path d="M107.445 78.0146H71.2708C68.6014 78.0146 66.4375 80.0392 66.4375 82.5365V94.6314C66.4375 97.1287 68.6014 99.1532 71.2708 99.1532H107.445C110.114 99.1532 112.278 97.1287 112.278 94.6314V82.5365C112.278 80.0392 110.114 78.0146 107.445 78.0146Z" fill="#757575"/>
<path d="M74.6263 88.1162H104.096C141.232 88.1162 171.376 116.318 171.376 151.062V169.44C171.376 188.968 154.427 204.814 133.566 204.814H45.1674C24.2949 204.814 7.35742 188.958 7.35742 169.44V151.062C7.35742 116.318 37.5007 88.1162 74.637 88.1162H74.6263Z" fill="#EDEDED"/>
<path d="M145.567 166.092C143.418 167.083 141.012 167.603 138.574 167.603H40.1461C37.6975 167.603 35.2916 167.083 33.1529 166.092C27.8814 163.651 24.9089 158.729 25.6466 153.677L25.7001 153.307C28.2237 136.2 44.7868 123.044 65.0819 122.064C73.6684 121.644 82.6824 121.434 92.0922 121.484C99.4596 121.524 106.581 121.724 113.435 122.054C133.816 123.034 150.497 136.14 153.031 153.307C153.052 153.427 153.063 153.557 153.084 153.677C153.833 158.729 150.849 163.651 145.578 166.092H145.567Z" fill="black"/>
<path d="M63.4151 158.938C70.7733 158.938 76.7384 153.357 76.7384 146.473C76.7384 139.589 70.7733 134.008 63.4151 134.008C56.0569 134.008 50.0918 139.589 50.0918 146.473C50.0918 153.357 56.0569 158.938 63.4151 158.938Z" fill="#EEFDFF"/>
<path d="M63.4153 156.935C69.5923 156.935 74.6001 152.249 74.6001 146.47C74.6001 140.691 69.5923 136.006 63.4153 136.006C57.238 136.006 52.2305 140.691 52.2305 146.47C52.2305 152.249 57.238 156.935 63.4153 156.935Z" fill="#1EC59C"/>
<path d="M70.5829 143.759C70.5829 145.9 68.7222 147.641 66.4341 147.641C64.1458 147.641 62.2852 145.9 62.2852 143.759C62.2852 141.619 64.1458 139.878 66.4341 139.878C68.7222 139.878 70.5829 141.619 70.5829 143.759Z" fill="#EEFDFF"/>
<path d="M113.55 158.938C120.908 158.938 126.873 153.357 126.873 146.473C126.873 139.589 120.908 134.008 113.55 134.008C106.191 134.008 100.227 139.589 100.227 146.473C100.227 153.357 106.191 158.938 113.55 158.938Z" fill="#EEFDFF"/>
<path d="M113.554 156.935C119.731 156.935 124.739 152.249 124.739 146.47C124.739 140.691 119.731 136.006 113.554 136.006C107.377 136.006 102.369 140.691 102.369 146.47C102.369 152.249 107.377 156.935 113.554 156.935Z" fill="#1EC59C"/>
<path d="M120.733 143.759C120.733 145.9 118.873 147.641 116.585 147.641C114.296 147.641 112.436 145.9 112.436 143.759C112.436 141.619 114.296 139.878 116.585 139.878C118.873 139.878 120.733 141.619 120.733 143.759Z" fill="#EEFDFF"/>
<path d="M96.069 47.0785C96.069 50.5499 93.0642 53.3611 89.3538 53.3611C85.6433 53.3611 82.6387 50.5499 82.6387 47.0785C82.6387 43.6071 85.6433 40.7959 89.3538 40.7959C93.0642 40.7959 96.069 43.6071 96.069 47.0785Z" fill="#757575"/>
<path d="M94.0301 44.6305C94.0301 45.691 93.1104 46.5414 91.9877 46.5414C90.8649 46.5414 89.9453 45.681 89.9453 44.6305C89.9453 43.5801 90.8649 42.7197 91.9877 42.7197C93.1104 42.7197 94.0301 43.5801 94.0301 44.6305Z" fill="white"/>
<path d="M146.814 148.924C146.065 149.414 140.847 139.47 126.84 130.856C121.921 127.825 117.056 125.664 117.344 125.034C117.633 124.394 123.108 125.584 127.492 127.485C141.457 133.547 147.701 148.343 146.803 148.924H146.814Z" fill="white"/>
</svg>
