<svg width="200" height="196" viewBox="0 0 200 196" fill="none" xmlns="http://www.w3.org/2000/svg">
<path d="M21.0571 177.43V179.896H12.4634V181.8H18.6401V189.002H3.13721V181.8H9.36279V179.896H0.793457V177.43H21.0571ZM19.2505 167.64V170.13H16.3452V173.523H19.104V176.014H2.72217V173.523H5.45654V170.13H2.57568V167.64H19.2505ZM6.21338 184.217V186.512H15.5884V184.217H6.21338ZM8.58154 173.523H13.2202V170.13H8.58154V173.523ZM33.4204 174.988V177.649H42.0386V180.164H21.7749V177.649H30.3442V174.988H33.4204ZM31.8823 181.385C36.7163 181.385 39.5972 182.776 39.6216 185.315C39.5972 187.854 36.7163 189.246 31.8823 189.246C26.9995 189.246 24.0942 187.854 24.0942 185.315C24.0942 182.776 26.9995 181.385 31.8823 181.385ZM31.8823 183.753C28.7817 183.753 27.2437 184.266 27.2681 185.315C27.2437 186.414 28.7817 186.927 31.8823 186.927C34.9097 186.927 36.4722 186.414 36.4966 185.315C36.4722 184.266 34.9097 183.753 31.8823 183.753ZM40.2075 167.981V170.423H34.1772C34.7266 171.949 36.9971 173.438 41.1597 173.816L40.061 176.258C35.874 175.843 33.0664 174.292 31.8823 172.132C30.6982 174.28 27.9272 175.843 23.7524 176.258L22.6538 173.816C26.792 173.438 29.0747 171.973 29.6362 170.423H23.6304V167.981H40.2075ZM52.8882 167.347C57.9907 167.347 60.9448 168.689 60.9692 171.131C60.9448 173.597 57.9907 174.939 52.8882 174.939C47.7612 174.939 44.7827 173.597 44.7827 171.131C44.7827 168.689 47.7612 167.347 52.8882 167.347ZM52.8882 169.617C49.6167 169.617 48.0298 170.154 48.0542 171.131C48.0298 172.229 49.6167 172.645 52.8882 172.645C56.1841 172.645 57.7466 172.229 57.7466 171.131C57.7466 170.154 56.1841 169.617 52.8882 169.617ZM63.02 175.989V178.455H42.7563V175.989H63.02ZM60.5542 179.749V185.413H48.1763V186.756H61.1401V189.1H45.1245V183.24H57.478V182.02H45.1001V179.749H60.5542ZM77.1997 170.838C77.1997 173.719 78.7378 176.575 82.2778 177.747L80.5933 180.188C78.2373 179.322 76.6138 177.686 75.686 175.623C74.7217 177.942 72.9883 179.773 70.4126 180.701L68.728 178.26C72.439 177.039 74.0503 173.987 74.0503 170.813V168.396H77.1997V170.838ZM87.6001 167.054V183.46H84.4995V174.28H80.3247V171.766H84.4995V167.054H87.6001ZM88.064 186.365V188.855H72.8052V181.727H75.9546V186.365H88.064ZM99.4263 168.519V171.009H93.6157V172.84H99.2065V175.208H93.6157V177.161C96.0815 177.149 97.9126 177.051 99.9634 176.697L100.281 179.188C97.6685 179.651 95.4956 179.725 92.1509 179.725H90.6372V168.519H99.4263ZM108.948 167.054V180.604H105.994V174.964H104.065V180.433H101.16V167.444H104.065V172.474H105.994V167.054H108.948ZM108.948 181.531V189.246H105.847V184.021H93.5913V181.531H108.948ZM121.555 170.423V172.889H110.813V170.423H114.67V167.64H117.747V170.423H121.555ZM116.233 173.89C119.065 173.89 121.091 176.087 121.116 179.163C121.091 182.264 119.065 184.461 116.233 184.461C113.401 184.461 111.326 182.264 111.326 179.163C111.326 176.087 113.401 173.89 116.233 173.89ZM116.233 176.478C114.939 176.478 114.06 177.479 114.06 179.163C114.06 180.848 114.939 181.824 116.233 181.824C117.478 181.824 118.357 180.848 118.381 179.163C118.357 177.479 117.478 176.478 116.233 176.478ZM130.051 167.029V189.246H127.097V178.553H125.291V188.294H122.385V167.469H125.291V176.062H127.097V167.029H130.051ZM157.219 179.285V181.775H148.577V189.246H145.5V181.775H136.956V179.285H157.219ZM155.413 168.201V170.643H148.943C149.248 172.815 151.702 175 156.267 175.55L155.144 177.991C151.238 177.466 148.442 175.794 147.112 173.499C145.745 175.794 142.974 177.466 139.104 177.991L137.957 175.55C142.449 175 144.927 172.815 145.281 170.643H138.787V168.201H155.413ZM165.066 172.62C165.066 176.209 166.067 179.92 169.094 181.873L167.41 184.29C165.493 183.13 164.272 181.226 163.577 178.943C162.771 181.458 161.44 183.558 159.426 184.778L157.522 182.483C160.818 180.433 162.039 176.526 162.039 172.767V168.934H165.066V172.62ZM177.2 167.029V189.246H174.221V167.029H177.2ZM172.537 167.347V188.221H169.631V177.063H166.75V174.524H169.631V167.347H172.537ZM199.255 184.095V186.658H178.918V184.095H183.459V178.65C181.738 177.625 180.701 176.05 180.701 174.085C180.701 170.496 184.216 168.104 189.05 168.104C193.86 168.104 197.4 170.496 197.424 174.085C197.412 176.001 196.399 177.564 194.739 178.602V184.095H199.255ZM189.05 170.569C185.876 170.569 183.777 171.839 183.777 174.085C183.777 176.258 185.876 177.601 189.05 177.601C192.2 177.601 194.324 176.258 194.348 174.085C194.324 171.839 192.2 170.569 189.05 170.569ZM186.536 184.095H191.589V179.773C190.796 179.932 189.941 180.018 189.05 180.018C188.159 180.018 187.317 179.944 186.536 179.773V184.095Z" fill="black"/>
<path d="M103.222 7.18945H98.75V34.6429H103.222V7.18945Z" fill="#757575"/>
<path d="M116.432 31.7686H85.5552C83.2767 31.7686 81.4297 33.4966 81.4297 35.6282V45.9521C81.4297 48.0837 83.2767 49.8117 85.5552 49.8117H116.432C118.711 49.8117 120.558 48.0837 120.558 45.9521V35.6282C120.558 33.4966 118.711 31.7686 116.432 31.7686Z" fill="#757575"/>
<path d="M88.4183 40.3906H113.573C145.271 40.3906 171 64.4626 171 94.1191V109.806C171 126.474 156.534 140 138.727 140H63.2732C45.4573 140 31 126.465 31 109.806V94.1191C31 64.4626 56.7292 40.3906 88.4275 40.3906H88.4183Z" fill="#EDEDED"/>
<path d="M148.971 106.949C147.136 107.794 145.083 108.238 143.002 108.238H58.987C56.8969 108.238 54.8434 107.794 53.0179 106.949C48.5183 104.865 45.9811 100.664 46.6107 96.3514L46.6564 96.0355C48.8105 81.4335 62.9482 70.2044 80.2713 69.3677C87.6005 69.009 95.2945 68.8297 103.326 68.8724C109.615 68.9066 115.693 69.0774 121.544 69.3591C138.94 70.1959 153.178 81.3823 155.341 96.0355C155.36 96.138 155.369 96.249 155.387 96.3514C156.026 100.664 153.479 104.865 148.98 106.949H148.971Z" fill="black"/>
<path d="M78.8488 100.842C85.1295 100.842 90.2211 96.0786 90.2211 90.2024C90.2211 84.3261 85.1295 79.5625 78.8488 79.5625C72.5682 79.5625 67.4766 84.3261 67.4766 90.2024C67.4766 96.0786 72.5682 100.842 78.8488 100.842Z" fill="#EEFDFF"/>
<path d="M78.8477 99.1316C84.1202 99.1316 88.3947 95.1325 88.3947 90.1996C88.3947 85.2665 84.1202 81.2676 78.8477 81.2676C73.575 81.2676 69.3008 85.2665 69.3008 90.1996C69.3008 95.1325 73.575 99.1316 78.8477 99.1316Z" fill="#1EC59C"/>
<path d="M84.9674 87.8854C84.9674 89.7128 83.3792 91.1987 81.4262 91.1987C79.4729 91.1987 77.8848 89.7128 77.8848 87.8854C77.8848 86.0581 79.4729 84.5723 81.4262 84.5723C83.3792 84.5723 84.9674 86.0581 84.9674 87.8854Z" fill="#EEFDFF"/>
<path d="M121.642 100.842C127.922 100.842 133.014 96.0786 133.014 90.2024C133.014 84.3261 127.922 79.5625 121.642 79.5625C115.361 79.5625 110.27 84.3261 110.27 90.2024C110.27 96.0786 115.361 100.842 121.642 100.842Z" fill="#EEFDFF"/>
<path d="M121.645 99.1316C126.917 99.1316 131.192 95.1325 131.192 90.1996C131.192 85.2665 126.917 81.2676 121.645 81.2676C116.372 81.2676 112.098 85.2665 112.098 90.1996C112.098 95.1325 116.372 99.1316 121.645 99.1316Z" fill="#1EC59C"/>
<path d="M127.774 87.8854C127.774 89.7128 126.186 91.1987 124.233 91.1987C122.28 91.1987 120.691 89.7128 120.691 87.8854C120.691 86.0581 122.28 84.5723 124.233 84.5723C126.186 84.5723 127.774 86.0581 127.774 87.8854Z" fill="#EEFDFF"/>
<path d="M106.719 5.36262C106.719 8.32565 104.155 10.7252 100.988 10.7252C97.8205 10.7252 95.2559 8.32565 95.2559 5.36262C95.2559 2.3995 97.8205 0 100.988 0C104.155 0 106.719 2.3995 106.719 5.36262Z" fill="#757575"/>
<path d="M104.981 3.27355C104.981 4.17877 104.196 4.90461 103.237 4.90461C102.279 4.90461 101.494 4.17022 101.494 3.27355C101.494 2.37695 102.279 1.64258 103.237 1.64258C104.196 1.64258 104.981 2.37695 104.981 3.27355Z" fill="white"/>
<path d="M150.036 92.2945C149.397 92.7128 144.943 84.2249 132.986 76.8726C128.788 74.2853 124.635 72.4408 124.882 71.9028C125.128 71.3563 129.801 72.3726 133.543 73.9949C145.463 79.1696 150.793 91.7991 150.027 92.2945H150.036Z" fill="white"/>
</svg>
